<svg xmlns="http://www.w3.org/2000/svg" viewBox="0 0 760 1140" width="760" height="1140" role="img" preserveAspectRatio="xMidYMid slice">
<defs>
<radialGradient id="lit" cx="31.7%" cy="23.2%" r="88%">
<stop offset="0" stop-color="#a89684"/>
<stop offset="0.3" stop-color="#736355"/>
<stop offset="0.66" stop-color="#2c251f"/>
<stop offset="1" stop-color="#0b0908"/>
</radialGradient>
<radialGradient id="vig" cx="31.7%" cy="23.2%" r="86%">
<stop offset="0.42" stop-color="#000" stop-opacity="0"/>
<stop offset="1" stop-color="#000" stop-opacity="0.55"/>
</radialGradient>
<filter id="mottle" x="0" y="0" width="100%" height="100%">
<feTurbulence type="fractalNoise" baseFrequency="0.005 0.009" numOctaves="4" seed="815"/>
<feColorMatrix type="saturate" values="0"/>
</filter>
<filter id="grain" x="0" y="0" width="100%" height="100%">
<feTurbulence type="fractalNoise" baseFrequency="0.9" numOctaves="2" seed="832"/>
<feColorMatrix type="saturate" values="0"/>
</filter>
<filter id="bleed" x="-15%" y="-15%" width="130%" height="130%">
<feGaussianBlur stdDeviation="2.7"/>
</filter>
<g id="motif"><path d="M 176.8 386.4 C 187 381.7, 217.2 366.1, 238.1 358.2 C 259 350.4, 280.7 345.1, 302.4 339.3 C 324.1 333.6, 346.1 328.8, 368.2 323.7 C 390.3 318.5, 412.6 313.8, 434.9 308.2 C 457.1 302.6, 479.2 295.9, 501.6 290.1 C 524.1 284.2, 547.1 279.6, 569.5 272.8 C 592 266, 613.6 255.9, 636.3 249.1 C 659 242.3, 682.6 238.3, 705.7 232.2 C 728.7 226, 763 215.4, 774.4 212 C 785.9 208.6, 785.1 206, 774.4 212 C 763.8 218, 731.6 236, 710.4 248.3 C 689.1 260.5, 668.5 274.8, 647 285.4 C 625.4 296, 602.8 302.8, 581 311.8 C 559.1 320.7, 537.9 331.2, 516 339.2 C 494.2 347.2, 472 353.4, 450 359.7 C 427.9 365.9, 406 372, 383.8 376.8 C 361.6 381.6, 339.4 385.8, 316.8 388.5 C 294.3 391.2, 271.7 393.5, 248.3 393.1 C 225 392.8, 188.7 387.5, 176.8 386.4 C 164.9 385.3, 166.6 391.1, 176.8 386.4 Z" fill="#0B0908" stroke="none" opacity="0.9"/><circle cx="479.7" cy="342" r="2.5" fill="#0B0908" stroke="none" opacity="0.2"/><circle cx="752.9" cy="131.5" r="2.8" fill="#0B0908" stroke="none" opacity="0.4"/><circle cx="467" cy="231.1" r="4.6" fill="#0B0908" stroke="none" opacity="0.6"/><circle cx="300.7" cy="386.7" r="2" fill="#0B0908" stroke="none" opacity="0.5"/><circle cx="595.1" cy="253.6" r="2.3" fill="#0B0908" stroke="none" opacity="0.3"/><circle cx="599.1" cy="331.2" r="4.1" fill="#0B0908" stroke="none" opacity="0.5"/><circle cx="492.5" cy="231" r="3.1" fill="#0B0908" stroke="none" opacity="0.4"/><circle cx="733.9" cy="146.1" r="4.1" fill="#0B0908" stroke="none" opacity="0.3"/><circle cx="312" cy="389.2" r="2.8" fill="#0B0908" stroke="none" opacity="0.3"/><circle cx="207.9" cy="324.4" r="4" fill="#0B0908" stroke="none" opacity="0.4"/><circle cx="488.9" cy="344.7" r="3.6" fill="#0B0908" stroke="none" opacity="0.3"/><circle cx="242.7" cy="408.1" r="2.5" fill="#0B0908" stroke="none" opacity="0.3"/><circle cx="242.3" cy="337.9" r="4" fill="#0B0908" stroke="none" opacity="0.5"/><circle cx="741.6" cy="295.6" r="2.4" fill="#0B0908" stroke="none" opacity="0.2"/><circle cx="170.3" cy="341.1" r="3.7" fill="#0B0908" stroke="none" opacity="0.3"/><circle cx="245.6" cy="356.5" r="4.5" fill="#0B0908" stroke="none" opacity="0.5"/><circle cx="692.5" cy="208.4" r="4.1" fill="#0B0908" stroke="none" opacity="0.6"/><circle cx="268.3" cy="287.9" r="2.4" fill="#0B0908" stroke="none" opacity="0.5"/><circle cx="419.3" cy="413.4" r="4.1" fill="#0B0908" stroke="none" opacity="0.5"/><circle cx="502.8" cy="378" r="1.9" fill="#0B0908" stroke="none" opacity="0.6"/><circle cx="423.1" cy="256.7" r="4.6" fill="#0B0908" stroke="none" opacity="0.5"/><circle cx="383.4" cy="328" r="2.3" fill="#0B0908" stroke="none" opacity="0.4"/><circle cx="264.5" cy="426.5" r="4.3" fill="#0B0908" stroke="none" opacity="0.4"/><circle cx="674.3" cy="218" r="3.6" fill="#0B0908" stroke="none" opacity="0.5"/><circle cx="188.2" cy="293.8" r="3.6" fill="#0B0908" stroke="none" opacity="0.5"/><circle cx="340.8" cy="398.6" r="2.6" fill="#0B0908" stroke="none" opacity="0.3"/><path d="M 253.9 262.2 C 267.1 264.5, 306.9 271, 333.1 276.1 C 359.3 281.2, 385.6 285.9, 411.1 292.8 C 436.5 299.6, 461.4 308, 485.8 317.2 C 510.2 326.5, 533.6 338.4, 557.4 348.4 C 581.3 358.5, 604.8 369, 628.8 377.4 C 652.8 385.9, 677.9 390.7, 701.5 399.2 C 725.2 407.7, 747.7 419.2, 770.9 428.5 C 794.1 437.8, 817.4 446, 840.6 454.8 C 863.8 463.5, 898.4 476.5, 910 480.9 C 921.5 485.2, 922.7 481.7, 910 480.9 C 897.2 480, 859 478, 833.5 476 C 808.1 474, 782.9 471.5, 757.4 469 C 732 466.5, 705.9 465.8, 681 461 C 656.1 456.2, 632.6 446.9, 608 440.1 C 583.4 433.3, 558.3 427.6, 533.6 420.4 C 508.8 413.1, 483.6 406.7, 459.4 396.8 C 435.2 387, 411.5 375.1, 388.3 361.3 C 365.2 347.5, 342.9 330.6, 320.5 314.1 C 298.1 297.6, 265 270.8, 253.9 262.2 C 242.8 253.5, 240.7 259.8, 253.9 262.2 Z" fill="#0B0908" stroke="none" opacity="0.8"/><circle cx="706.3" cy="441.4" r="3" fill="#0B0908" stroke="none" opacity="0.5"/><circle cx="521.3" cy="217.9" r="3.2" fill="#0B0908" stroke="none" opacity="0.6"/><circle cx="660.2" cy="297.9" r="3" fill="#0B0908" stroke="none" opacity="0.3"/><circle cx="885.2" cy="493.2" r="2.9" fill="#0B0908" stroke="none" opacity="0.6"/><circle cx="519.6" cy="383.1" r="3.2" fill="#0B0908" stroke="none" opacity="0.4"/><circle cx="310.6" cy="208.3" r="1.7" fill="#0B0908" stroke="none" opacity="0.3"/><circle cx="257.7" cy="368.4" r="1.7" fill="#0B0908" stroke="none" opacity="0.4"/><circle cx="604.9" cy="396.5" r="4.1" fill="#0B0908" stroke="none" opacity="0.5"/><circle cx="725.9" cy="480" r="3.4" fill="#0B0908" stroke="none" opacity="0.6"/><circle cx="264.1" cy="251.6" r="2.7" fill="#0B0908" stroke="none" opacity="0.2"/><circle cx="500" cy="390.9" r="4.2" fill="#0B0908" stroke="none" opacity="0.4"/><circle cx="603.8" cy="446.2" r="3.5" fill="#0B0908" stroke="none" opacity="0.5"/><circle cx="806.4" cy="338.8" r="3.5" fill="#0B0908" stroke="none" opacity="0.4"/><circle cx="641.2" cy="388.5" r="3.8" fill="#0B0908" stroke="none" opacity="0.6"/><circle cx="720.7" cy="466.8" r="3.5" fill="#0B0908" stroke="none" opacity="0.2"/><circle cx="528.8" cy="212.2" r="3.6" fill="#0B0908" stroke="none" opacity="0.3"/><circle cx="545.8" cy="365.3" r="3.8" fill="#0B0908" stroke="none" opacity="0.5"/><circle cx="601.6" cy="401.6" r="3.7" fill="#0B0908" stroke="none" opacity="0.3"/><circle cx="376" cy="185" r="1.8" fill="#0B0908" stroke="none" opacity="0.5"/><circle cx="740.9" cy="315.4" r="4.7" fill="#0B0908" stroke="none" opacity="0.3"/><circle cx="392.6" cy="377.3" r="3.8" fill="#0B0908" stroke="none" opacity="0.5"/><circle cx="667.8" cy="408.5" r="1.9" fill="#0B0908" stroke="none" opacity="0.3"/><circle cx="614.5" cy="347" r="2.9" fill="#0B0908" stroke="none" opacity="0.3"/><circle cx="651.8" cy="359.7" r="4.9" fill="#0B0908" stroke="none" opacity="0.3"/><circle cx="407.3" cy="270.1" r="1.9" fill="#0B0908" stroke="none" opacity="0.4"/><circle cx="575.6" cy="411.5" r="4.3" fill="#0B0908" stroke="none" opacity="0.3"/><path d="M 168.3 215.2 C 179.3 212.2, 212.3 201.5, 234.6 197.6 C 257 193.6, 279.7 193.6, 302.3 191.3 C 324.9 189, 347.4 186.6, 370 183.7 C 392.6 180.8, 414.9 175, 437.8 174 C 460.7 173.1, 484.3 179.2, 507.3 177.8 C 530.2 176.4, 552.4 167.3, 575.4 165.5 C 598.4 163.7, 622.1 168.1, 645.2 166.7 C 668.3 165.4, 691 159.8, 714.1 157.4 C 737.2 155, 772 153.4, 783.6 152.6 C 795.2 151.7, 794.8 148.1, 783.6 152.6 C 772.4 157, 738.9 171.5, 716.4 179.3 C 693.9 187, 671 191.5, 648.5 199.2 C 626.1 206.9, 604.2 220, 581.6 225.6 C 559 231.3, 535.6 229, 513 233.2 C 490.3 237.3, 468.4 248.1, 445.7 250.7 C 423 253.3, 399.7 250, 376.7 248.8 C 353.7 247.7, 330.7 245.9, 307.7 243.7 C 284.7 241.6, 261.9 240.9, 238.6 236.2 C 215.4 231.4, 180 218.7, 168.3 215.2 C 156.5 211.7, 157.2 218.1, 168.3 215.2 Z" fill="#0B0908" stroke="none" opacity="0.8"/><circle cx="701.6" cy="63.3" r="2.2" fill="#0B0908" stroke="none" opacity="0.5"/><circle cx="579.3" cy="128.1" r="4.3" fill="#0B0908" stroke="none" opacity="0.3"/><circle cx="511" cy="106.6" r="3.3" fill="#0B0908" stroke="none" opacity="0.4"/><circle cx="526.8" cy="106.3" r="3.8" fill="#0B0908" stroke="none" opacity="0.3"/><circle cx="639.1" cy="78.1" r="1.4" fill="#0B0908" stroke="none" opacity="0.5"/><circle cx="187.8" cy="112.2" r="2.9" fill="#0B0908" stroke="none" opacity="0.4"/><circle cx="275.3" cy="121" r="4.6" fill="#0B0908" stroke="none" opacity="0.4"/><circle cx="306.7" cy="107.5" r="4.8" fill="#0B0908" stroke="none" opacity="0.4"/><circle cx="674.9" cy="271" r="4.2" fill="#0B0908" stroke="none" opacity="0.4"/><circle cx="544.5" cy="231.1" r="2.9" fill="#0B0908" stroke="none" opacity="0.3"/><circle cx="385.5" cy="229.7" r="5" fill="#0B0908" stroke="none" opacity="0.4"/><circle cx="723.2" cy="69.7" r="1.7" fill="#0B0908" stroke="none" opacity="0.3"/><circle cx="753.8" cy="178" r="4.9" fill="#0B0908" stroke="none" opacity="0.5"/><circle cx="243" cy="235" r="5" fill="#0B0908" stroke="none" opacity="0.3"/><circle cx="485.2" cy="125.9" r="2.2" fill="#0B0908" stroke="none" opacity="0.3"/><circle cx="702.9" cy="268.9" r="1.5" fill="#0B0908" stroke="none" opacity="0.4"/><circle cx="201" cy="299.8" r="3.2" fill="#0B0908" stroke="none" opacity="0.5"/><circle cx="680.7" cy="256.7" r="2.2" fill="#0B0908" stroke="none" opacity="0.3"/><circle cx="407.6" cy="138.1" r="3.6" fill="#0B0908" stroke="none" opacity="0.5"/><circle cx="349.9" cy="231.6" r="3.6" fill="#0B0908" stroke="none" opacity="0.5"/><circle cx="254.8" cy="187.1" r="4.3" fill="#0B0908" stroke="none" opacity="0.2"/><circle cx="247.5" cy="288.4" r="2.8" fill="#0B0908" stroke="none" opacity="0.4"/><circle cx="421.9" cy="275.4" r="4.7" fill="#0B0908" stroke="none" opacity="0.6"/><circle cx="454.5" cy="169.8" r="2.1" fill="#0B0908" stroke="none" opacity="0.3"/><circle cx="610.7" cy="230.4" r="4.3" fill="#0B0908" stroke="none" opacity="0.2"/><circle cx="714.7" cy="172.4" r="1.7" fill="#0B0908" stroke="none" opacity="0.2"/><path d="M 260.1 664.1 C 269.7 663, 299.2 656.6, 317.9 657.2 C 336.6 657.8, 353.9 666.5, 372.3 667.9 C 390.8 669.4, 410.7 662.9, 428.6 666.1 C 446.6 669.3, 462.8 682, 480.2 687.4 C 497.6 692.7, 515.8 693.6, 533.2 698 C 550.6 702.5, 567.3 710.1, 584.6 714.1 C 601.9 718.2, 619.9 717.7, 637 722.2 C 654.1 726.8, 670.1 736, 687 741.3 C 703.8 746.6, 729.5 751.7, 738 753.8 C 746.5 755.9, 747.2 752.1, 738 753.8 C 728.8 755.5, 701.3 759.9, 682.8 764.1 C 664.2 768.2, 644.9 776.2, 626.5 778.6 C 608.2 780.9, 590.8 777.8, 572.8 778 C 554.7 778.3, 536 781.3, 518 780.1 C 500 778.9, 482.7 773.1, 464.8 770.7 C 446.8 768.3, 427.5 772.2, 410.1 765.9 C 392.7 759.6, 377.2 742.3, 360.3 732.7 C 343.3 723.1, 325.2 719.7, 308.5 708.3 C 291.8 696.9, 268.2 671.5, 260.1 664.1 C 252 656.8, 250.5 665.3, 260.1 664.1 Z" fill="#0B0908" stroke="none" opacity="0.7"/><circle cx="579.4" cy="705" r="2.3" fill="#0B0908" stroke="none" opacity="0.4"/><circle cx="712.5" cy="791.5" r="3.7" fill="#0B0908" stroke="none" opacity="0.3"/><circle cx="367.4" cy="655.3" r="3.4" fill="#0B0908" stroke="none" opacity="0.6"/><circle cx="376.9" cy="576" r="3.1" fill="#0B0908" stroke="none" opacity="0.3"/><circle cx="787.8" cy="718.8" r="3.8" fill="#0B0908" stroke="none" opacity="0.2"/><circle cx="634.8" cy="626.7" r="3.4" fill="#0B0908" stroke="none" opacity="0.3"/><circle cx="489.2" cy="751.9" r="3.6" fill="#0B0908" stroke="none" opacity="0.4"/><circle cx="467" cy="728.1" r="4.2" fill="#0B0908" stroke="none" opacity="0.3"/><circle cx="304.2" cy="575.8" r="3.7" fill="#0B0908" stroke="none" opacity="0.3"/><circle cx="427.1" cy="723" r="1.7" fill="#0B0908" stroke="none" opacity="0.5"/><circle cx="610.4" cy="862.5" r="3.4" fill="#0B0908" stroke="none" opacity="0.5"/><circle cx="527.7" cy="872.1" r="4.3" fill="#0B0908" stroke="none" opacity="0.5"/><circle cx="652.7" cy="780.1" r="2.8" fill="#0B0908" stroke="none" opacity="0.5"/><circle cx="422.3" cy="843.8" r="2.6" fill="#0B0908" stroke="none" opacity="0.3"/><circle cx="715.8" cy="612" r="3.2" fill="#0B0908" stroke="none" opacity="0.4"/><circle cx="372.6" cy="729.5" r="2.8" fill="#0B0908" stroke="none" opacity="0.3"/><circle cx="708.8" cy="874.5" r="2.3" fill="#0B0908" stroke="none" opacity="0.5"/><circle cx="461.7" cy="827.7" r="3.6" fill="#0B0908" stroke="none" opacity="0.6"/><circle cx="674.4" cy="655.5" r="4.8" fill="#0B0908" stroke="none" opacity="0.3"/><circle cx="520.4" cy="668.7" r="2.3" fill="#0B0908" stroke="none" opacity="0.2"/><circle cx="450.2" cy="738" r="2.9" fill="#0B0908" stroke="none" opacity="0.5"/><circle cx="253.4" cy="683.8" r="4.4" fill="#0B0908" stroke="none" opacity="0.5"/><circle cx="382.2" cy="625.8" r="2" fill="#0B0908" stroke="none" opacity="0.3"/><circle cx="709.4" cy="844.7" r="2.8" fill="#0B0908" stroke="none" opacity="0.5"/><circle cx="488.6" cy="807.8" r="4" fill="#0B0908" stroke="none" opacity="0.5"/><circle cx="520.4" cy="763.9" r="2.6" fill="#0B0908" stroke="none" opacity="0.5"/><path d="M 143.2 359.9 C 152.2 359.9, 179.3 358.1, 196.8 360 C 214.2 361.9, 230.8 367.3, 247.7 371.1 C 264.6 374.9, 281.3 379.8, 298.2 382.8 C 315.1 385.9, 332.5 385.8, 349.1 389.3 C 365.7 392.9, 381.7 399, 397.8 403.8 C 413.9 408.7, 429.8 414.2, 445.7 418.7 C 461.7 423.1, 477.9 426.1, 493.8 430.5 C 509.6 434.8, 525 440.8, 540.8 444.9 C 556.6 449, 580.5 453.5, 588.5 455.2 C 596.4 456.9, 597 454.1, 588.5 455.2 C 579.9 456.3, 554.4 459.4, 537.2 462 C 520 464.5, 502.4 468.8, 485.3 470.6 C 468.1 472.3, 451.3 472.2, 434.4 472.5 C 417.4 472.7, 400.2 473.2, 383.4 472 C 366.5 470.8, 349.5 469.8, 333.1 465.2 C 316.7 460.6, 301.2 451.4, 285.1 444.4 C 269 437.5, 252.7 431.3, 236.6 423.6 C 220.5 415.9, 204.2 408.9, 188.7 398.3 C 173.1 387.7, 150.8 366.3, 143.2 359.9 C 135.7 353.5, 134.3 359.9, 143.2 359.9 Z" fill="#0B0908" stroke="none" opacity="0.9"/><circle cx="266.5" cy="407.3" r="2.3" fill="#0B0908" stroke="none" opacity="0.2"/><circle cx="213" cy="297.9" r="2.1" fill="#0B0908" stroke="none" opacity="0.3"/><circle cx="347.3" cy="337.1" r="3.6" fill="#0B0908" stroke="none" opacity="0.3"/><circle cx="380.6" cy="456.5" r="4.6" fill="#0B0908" stroke="none" opacity="0.6"/><circle cx="323.6" cy="460.4" r="4.6" fill="#0B0908" stroke="none" opacity="0.3"/><circle cx="309.3" cy="318.4" r="2.7" fill="#0B0908" stroke="none" opacity="0.3"/><circle cx="524.4" cy="502.1" r="1.5" fill="#0B0908" stroke="none" opacity="0.2"/><circle cx="463.1" cy="417.7" r="2" fill="#0B0908" stroke="none" opacity="0.4"/><circle cx="247" cy="396.5" r="2.2" fill="#0B0908" stroke="none" opacity="0.3"/><circle cx="432" cy="349.9" r="2.7" fill="#0B0908" stroke="none" opacity="0.2"/><circle cx="378" cy="410" r="3.2" fill="#0B0908" stroke="none" opacity="0.5"/><circle cx="286.2" cy="315" r="3.1" fill="#0B0908" stroke="none" opacity="0.5"/><circle cx="445.2" cy="345.4" r="1.7" fill="#0B0908" stroke="none" opacity="0.5"/><circle cx="242.9" cy="434.1" r="4.1" fill="#0B0908" stroke="none" opacity="0.5"/><circle cx="621.9" cy="345.7" r="1.6" fill="#0B0908" stroke="none" opacity="0.5"/><circle cx="437.7" cy="337.9" r="4.5" fill="#0B0908" stroke="none" opacity="0.4"/><circle cx="269.7" cy="411" r="2.1" fill="#0B0908" stroke="none" opacity="0.6"/><circle cx="240.6" cy="474.9" r="3.4" fill="#0B0908" stroke="none" opacity="0.3"/><circle cx="494.1" cy="328.2" r="2.2" fill="#0B0908" stroke="none" opacity="0.5"/><circle cx="380.9" cy="425.5" r="4.3" fill="#0B0908" stroke="none" opacity="0.5"/><circle cx="605.8" cy="405.2" r="2.3" fill="#0B0908" stroke="none" opacity="0.5"/><circle cx="499.9" cy="513.5" r="2.9" fill="#0B0908" stroke="none" opacity="0.4"/><circle cx="506.3" cy="545.2" r="3.2" fill="#0B0908" stroke="none" opacity="0.5"/><circle cx="261.4" cy="390.8" r="3.4" fill="#0B0908" stroke="none" opacity="0.4"/><circle cx="623.2" cy="365.4" r="3.5" fill="#0B0908" stroke="none" opacity="0.4"/><circle cx="167.5" cy="381.5" r="1.5" fill="#0B0908" stroke="none" opacity="0.4"/></g>
</defs>
<rect width="760" height="1140" fill="url(#lit)"/>
<rect width="760" height="1140" filter="url(#mottle)" opacity="0.38" style="mix-blend-mode:overlay"/>
<g transform="translate(30.4 220.4) scale(0.6992) rotate(0.4 500 500)">
<use href="#motif" filter="url(#bleed)" opacity="0.5"/>
<use href="#motif" opacity="1"/>
</g>
<rect width="760" height="1140" fill="url(#vig)"/>
<rect width="760" height="1140" filter="url(#grain)" opacity="0.26" style="mix-blend-mode:overlay"/>
</svg>