<svg xmlns="http://www.w3.org/2000/svg" viewBox="0 0 1000 1000" width="1000" height="1000" role="img" preserveAspectRatio="xMidYMid slice">
<defs>
<radialGradient id="lit" cx="51.8%" cy="29.3%" r="88%">
<stop offset="0" stop-color="#a89684"/>
<stop offset="0.3" stop-color="#736355"/>
<stop offset="0.66" stop-color="#2c251f"/>
<stop offset="1" stop-color="#0b0908"/>
</radialGradient>
<radialGradient id="vig" cx="51.8%" cy="29.3%" r="86%">
<stop offset="0.42" stop-color="#000" stop-opacity="0"/>
<stop offset="1" stop-color="#000" stop-opacity="0.55"/>
</radialGradient>
<filter id="mottle" x="0" y="0" width="100%" height="100%">
<feTurbulence type="fractalNoise" baseFrequency="0.005 0.009" numOctaves="4" seed="340"/>
<feColorMatrix type="saturate" values="0"/>
</filter>
<filter id="grain" x="0" y="0" width="100%" height="100%">
<feTurbulence type="fractalNoise" baseFrequency="0.9" numOctaves="2" seed="357"/>
<feColorMatrix type="saturate" values="0"/>
</filter>
<filter id="bleed" x="-15%" y="-15%" width="130%" height="130%">
<feGaussianBlur stdDeviation="2"/>
</filter>
<g id="motif"><path d="M 476.7 706.9 A 90 90 0 0 1 476.7 533.1" fill="none" stroke="#0B0908" stroke-width="6" stroke-linecap="round" stroke-linejoin="round" opacity="1"/><path d="M 470.2 744.2 A 127.7 127.7 0 0 1 470.2 495.8" fill="none" stroke="#0B0908" stroke-width="2.6" stroke-linecap="round" stroke-linejoin="round" opacity="0.9"/><path d="M 465.6 781.8 A 165.4 165.4 0 0 1 465.6 458.2" fill="none" stroke="#0B0908" stroke-width="2.6" stroke-linecap="round" stroke-linejoin="round" opacity="0.9"/><path d="M 463 819.7 A 203.1 203.1 0 0 1 463 420.3" fill="none" stroke="#0B0908" stroke-width="6" stroke-linecap="round" stroke-linejoin="round" opacity="0.8"/><path d="M 462.3 857.8 A 240.8 240.8 0 0 1 462.3 382.2" fill="none" stroke="#0B0908" stroke-width="2.6" stroke-linecap="round" stroke-linejoin="round" opacity="0.7"/><path d="M 463.6 896.1 A 278.5 278.5 0 0 1 463.6 343.9" fill="none" stroke="#0B0908" stroke-width="2.6" stroke-linecap="round" stroke-linejoin="round" opacity="0.7"/><path d="M 466.9 934.5 A 316.2 316.2 0 0 1 466.9 305.5" fill="none" stroke="#0B0908" stroke-width="6" stroke-linecap="round" stroke-linejoin="round" opacity="0.6"/><path d="M 472.2 972.8 A 353.9 353.9 0 0 1 472.2 267.2" fill="none" stroke="#0B0908" stroke-width="2.6" stroke-linecap="round" stroke-linejoin="round" opacity="0.5"/><circle cx="500" cy="620" r="14" fill="#0B0908" stroke="none"/><circle cx="334.5" cy="337.9" r="1.6" fill="#0B0908" stroke="none" opacity="0.5"/><circle cx="771.5" cy="397.6" r="1.2" fill="#0B0908" stroke="none" opacity="0.4"/><circle cx="204.7" cy="432.8" r="1.1" fill="#0B0908" stroke="none" opacity="0.4"/><circle cx="650.8" cy="497.6" r="1.3" fill="#0B0908" stroke="none" opacity="0.5"/><circle cx="717.9" cy="352.5" r="1.4" fill="#0B0908" stroke="none" opacity="0.5"/><circle cx="373.4" cy="344.2" r="1.9" fill="#0B0908" stroke="none" opacity="0.6"/><circle cx="615.7" cy="389.8" r="2.3" fill="#0B0908" stroke="none" opacity="0.7"/><circle cx="339.6" cy="346.3" r="1.7" fill="#0B0908" stroke="none" opacity="0.6"/><circle cx="416.6" cy="534.6" r="1.5" fill="#0B0908" stroke="none" opacity="0.5"/><circle cx="284.7" cy="341.4" r="1.4" fill="#0B0908" stroke="none" opacity="0.5"/><circle cx="618.4" cy="430.3" r="1.9" fill="#0B0908" stroke="none" opacity="0.7"/><circle cx="376.7" cy="538" r="1.4" fill="#0B0908" stroke="none" opacity="0.4"/><circle cx="599.4" cy="383.9" r="2.3" fill="#0B0908" stroke="none" opacity="0.8"/><circle cx="654.5" cy="450" r="1.5" fill="#0B0908" stroke="none" opacity="0.6"/><circle cx="375.3" cy="410.1" r="1.6" fill="#0B0908" stroke="none" opacity="0.7"/><circle cx="249.8" cy="365" r="1.2" fill="#0B0908" stroke="none" opacity="0.4"/><circle cx="497.9" cy="272.2" r="1.4" fill="#0B0908" stroke="none" opacity="0.5"/><circle cx="771.6" cy="420.1" r="1.2" fill="#0B0908" stroke="none" opacity="0.4"/><circle cx="681.9" cy="353.8" r="1.7" fill="#0B0908" stroke="none" opacity="0.6"/><circle cx="339.9" cy="447.5" r="1.8" fill="#0B0908" stroke="none" opacity="0.6"/><circle cx="469.6" cy="346.2" r="1.6" fill="#0B0908" stroke="none" opacity="0.7"/><circle cx="606.5" cy="302.6" r="1.5" fill="#0B0908" stroke="none" opacity="0.5"/><circle cx="448.8" cy="446.7" r="2.4" fill="#0B0908" stroke="none" opacity="0.8"/><circle cx="348.2" cy="409.9" r="1.8" fill="#0B0908" stroke="none" opacity="0.7"/><circle cx="282.8" cy="395.7" r="1.5" fill="#0B0908" stroke="none" opacity="0.5"/><circle cx="301.9" cy="396.5" r="1.5" fill="#0B0908" stroke="none" opacity="0.6"/><circle cx="783.8" cy="450.8" r="1.1" fill="#0B0908" stroke="none" opacity="0.4"/><circle cx="316.7" cy="410.2" r="1.4" fill="#0B0908" stroke="none" opacity="0.6"/><circle cx="401.2" cy="255" r="1.2" fill="#0B0908" stroke="none" opacity="0.4"/><circle cx="642.6" cy="389.6" r="1.7" fill="#0B0908" stroke="none" opacity="0.7"/><circle cx="618.5" cy="532.7" r="1.4" fill="#0B0908" stroke="none" opacity="0.5"/><circle cx="416.6" cy="495.9" r="1.7" fill="#0B0908" stroke="none" opacity="0.6"/><circle cx="694.3" cy="331.2" r="1.4" fill="#0B0908" stroke="none" opacity="0.5"/><circle cx="578.5" cy="426.7" r="1.7" fill="#0B0908" stroke="none" opacity="0.8"/><circle cx="281.3" cy="311.6" r="1.2" fill="#0B0908" stroke="none" opacity="0.4"/><circle cx="462.7" cy="310.2" r="1.6" fill="#0B0908" stroke="none" opacity="0.6"/><circle cx="464.6" cy="249" r="1.2" fill="#0B0908" stroke="none" opacity="0.4"/><circle cx="500.7" cy="350" r="2.3" fill="#0B0908" stroke="none" opacity="0.8"/><circle cx="783.7" cy="418.4" r="1.2" fill="#0B0908" stroke="none" opacity="0.4"/><circle cx="500.6" cy="249.6" r="1.2" fill="#0B0908" stroke="none" opacity="0.4"/><circle cx="758.8" cy="326.9" r="1.1" fill="#0B0908" stroke="none" opacity="0.4"/><circle cx="317.4" cy="328.3" r="1.4" fill="#0B0908" stroke="none" opacity="0.5"/><circle cx="406.2" cy="376.2" r="2.3" fill="#0B0908" stroke="none" opacity="0.8"/><circle cx="411.9" cy="498.8" r="1.8" fill="#0B0908" stroke="none" opacity="0.6"/><circle cx="489.2" cy="310.4" r="1.5" fill="#0B0908" stroke="none" opacity="0.6"/><circle cx="501.6" cy="379.6" r="2.4" fill="#0B0908" stroke="none" opacity="0.9"/><circle cx="393.6" cy="454.3" r="1.7" fill="#0B0908" stroke="none" opacity="0.7"/><circle cx="336.6" cy="518.1" r="1.4" fill="#0B0908" stroke="none" opacity="0.5"/><circle cx="346.8" cy="272.9" r="1.2" fill="#0B0908" stroke="none" opacity="0.4"/><circle cx="428.5" cy="482.6" r="2" fill="#0B0908" stroke="none" opacity="0.7"/><circle cx="689.2" cy="515.1" r="1.2" fill="#0B0908" stroke="none" opacity="0.4"/><circle cx="469.7" cy="477.6" r="2.2" fill="#0B0908" stroke="none" opacity="0.7"/><circle cx="520.2" cy="479.5" r="2.2" fill="#0B0908" stroke="none" opacity="0.7"/><circle cx="362" cy="466.3" r="1.9" fill="#0B0908" stroke="none" opacity="0.6"/><circle cx="710.8" cy="362.7" r="1.3" fill="#0B0908" stroke="none" opacity="0.5"/><circle cx="470.4" cy="337.1" r="1.7" fill="#0B0908" stroke="none" opacity="0.7"/><circle cx="465.6" cy="469.1" r="2.1" fill="#0B0908" stroke="none" opacity="0.8"/><circle cx="288.6" cy="309" r="1.2" fill="#0B0908" stroke="none" opacity="0.4"/><circle cx="497.2" cy="398.4" r="2.4" fill="#0B0908" stroke="none" opacity="1"/><circle cx="780.6" cy="446.6" r="1.1" fill="#0B0908" stroke="none" opacity="0.4"/><circle cx="608.7" cy="511.9" r="1.5" fill="#0B0908" stroke="none" opacity="0.5"/><circle cx="460.8" cy="573.5" r="1.1" fill="#0B0908" stroke="none" opacity="0.4"/><circle cx="615.5" cy="468.6" r="1.9" fill="#0B0908" stroke="none" opacity="0.7"/><circle cx="492.3" cy="495.8" r="2.1" fill="#0B0908" stroke="none" opacity="0.7"/><circle cx="529.8" cy="405.3" r="2.8" fill="#0B0908" stroke="none" opacity="0.9"/><circle cx="780.3" cy="430.9" r="1.2" fill="#0B0908" stroke="none" opacity="0.4"/><circle cx="399.3" cy="431.1" r="1.7" fill="#0B0908" stroke="none" opacity="0.8"/><circle cx="292.3" cy="427.3" r="1.5" fill="#0B0908" stroke="none" opacity="0.5"/><circle cx="733.5" cy="421" r="1.5" fill="#0B0908" stroke="none" opacity="0.5"/><circle cx="499.8" cy="522.6" r="1.6" fill="#0B0908" stroke="none" opacity="0.6"/><circle cx="718.4" cy="371.6" r="1.5" fill="#0B0908" stroke="none" opacity="0.5"/><circle cx="545" cy="445.1" r="2.4" fill="#0B0908" stroke="none" opacity="0.8"/><circle cx="475.4" cy="395.5" r="2" fill="#0B0908" stroke="none" opacity="0.9"/><circle cx="293.6" cy="524.5" r="1.2" fill="#0B0908" stroke="none" opacity="0.4"/><circle cx="307" cy="516.6" r="1.3" fill="#0B0908" stroke="none" opacity="0.4"/><circle cx="489.3" cy="452.8" r="2.1" fill="#0B0908" stroke="none" opacity="0.8"/><circle cx="726.7" cy="398.8" r="1.5" fill="#0B0908" stroke="none" opacity="0.5"/><circle cx="314.6" cy="281.7" r="1.1" fill="#0B0908" stroke="none" opacity="0.4"/><circle cx="579.1" cy="273.4" r="1.4" fill="#0B0908" stroke="none" opacity="0.5"/><circle cx="435.4" cy="389.8" r="2.2" fill="#0B0908" stroke="none" opacity="0.8"/><circle cx="467.4" cy="451.5" r="2.2" fill="#0B0908" stroke="none" opacity="0.8"/><circle cx="723.1" cy="491.2" r="1.3" fill="#0B0908" stroke="none" opacity="0.4"/><circle cx="535.8" cy="344.5" r="2.3" fill="#0B0908" stroke="none" opacity="0.7"/><circle cx="211.6" cy="363.8" r="1.1" fill="#0B0908" stroke="none" opacity="0.4"/><circle cx="350.4" cy="487.3" r="1.4" fill="#0B0908" stroke="none" opacity="0.6"/><circle cx="553.9" cy="309" r="1.8" fill="#0B0908" stroke="none" opacity="0.6"/><circle cx="592.9" cy="371.3" r="1.7" fill="#0B0908" stroke="none" opacity="0.8"/><circle cx="492.6" cy="515.6" r="1.5" fill="#0B0908" stroke="none" opacity="0.6"/><circle cx="458.7" cy="270.6" r="1.3" fill="#0B0908" stroke="none" opacity="0.5"/><circle cx="238.7" cy="477" r="1.2" fill="#0B0908" stroke="none" opacity="0.4"/><circle cx="712.2" cy="461.2" r="1.5" fill="#0B0908" stroke="none" opacity="0.5"/><circle cx="533.3" cy="440.6" r="1.9" fill="#0B0908" stroke="none" opacity="0.9"/><circle cx="475.1" cy="528.6" r="1.5" fill="#0B0908" stroke="none" opacity="0.5"/><circle cx="610.5" cy="467.6" r="1.8" fill="#0B0908" stroke="none" opacity="0.7"/><circle cx="565.3" cy="280.5" r="1.3" fill="#0B0908" stroke="none" opacity="0.5"/><circle cx="465.3" cy="286.5" r="1.4" fill="#0B0908" stroke="none" opacity="0.5"/><circle cx="634.6" cy="487.3" r="1.4" fill="#0B0908" stroke="none" opacity="0.6"/><circle cx="354.9" cy="316.1" r="1.4" fill="#0B0908" stroke="none" opacity="0.5"/><circle cx="455" cy="572.7" r="1.1" fill="#0B0908" stroke="none" opacity="0.4"/><circle cx="430.1" cy="387.7" r="2.5" fill="#0B0908" stroke="none" opacity="0.8"/><circle cx="481.2" cy="521.7" r="1.5" fill="#0B0908" stroke="none" opacity="0.6"/><circle cx="613.2" cy="507.2" r="1.4" fill="#0B0908" stroke="none" opacity="0.6"/><circle cx="602.9" cy="281.9" r="1.3" fill="#0B0908" stroke="none" opacity="0.5"/><circle cx="485" cy="552.5" r="1.3" fill="#0B0908" stroke="none" opacity="0.5"/><circle cx="677.9" cy="512.3" r="1.4" fill="#0B0908" stroke="none" opacity="0.5"/><circle cx="459" cy="565.6" r="1.2" fill="#0B0908" stroke="none" opacity="0.4"/><circle cx="462.3" cy="312.8" r="1.5" fill="#0B0908" stroke="none" opacity="0.6"/><circle cx="753.3" cy="434" r="1.4" fill="#0B0908" stroke="none" opacity="0.4"/><circle cx="344.6" cy="450.3" r="1.7" fill="#0B0908" stroke="none" opacity="0.6"/><circle cx="231.9" cy="343.6" r="1.1" fill="#0B0908" stroke="none" opacity="0.4"/><circle cx="617.6" cy="481" r="1.5" fill="#0B0908" stroke="none" opacity="0.6"/><circle cx="469.3" cy="370.9" r="2.2" fill="#0B0908" stroke="none" opacity="0.8"/><circle cx="783.2" cy="427.2" r="1.2" fill="#0B0908" stroke="none" opacity="0.4"/><circle cx="430.2" cy="445.6" r="2.5" fill="#0B0908" stroke="none" opacity="0.8"/><circle cx="444" cy="260.9" r="1.2" fill="#0B0908" stroke="none" opacity="0.4"/><circle cx="501.3" cy="577.1" r="1.1" fill="#0B0908" stroke="none" opacity="0.4"/><circle cx="713.1" cy="444.5" r="1.5" fill="#0B0908" stroke="none" opacity="0.5"/><circle cx="543.2" cy="391.9" r="2.6" fill="#0B0908" stroke="none" opacity="0.9"/><circle cx="295" cy="394.2" r="1.7" fill="#0B0908" stroke="none" opacity="0.6"/><circle cx="206.7" cy="385.3" r="1.1" fill="#0B0908" stroke="none" opacity="0.4"/><circle cx="713.1" cy="475.5" r="1.5" fill="#0B0908" stroke="none" opacity="0.5"/><circle cx="262.8" cy="331.9" r="1.2" fill="#0B0908" stroke="none" opacity="0.4"/><circle cx="603.7" cy="336.8" r="1.6" fill="#0B0908" stroke="none" opacity="0.6"/><circle cx="458.8" cy="403.9" r="2.7" fill="#0B0908" stroke="none" opacity="0.9"/><circle cx="589.6" cy="525" r="1.3" fill="#0B0908" stroke="none" opacity="0.5"/><circle cx="401.4" cy="311" r="1.6" fill="#0B0908" stroke="none" opacity="0.6"/><circle cx="691.9" cy="443" r="1.7" fill="#0B0908" stroke="none" opacity="0.6"/><circle cx="456.8" cy="476.1" r="2.1" fill="#0B0908" stroke="none" opacity="0.7"/><circle cx="481" cy="415.9" r="2.8" fill="#0B0908" stroke="none" opacity="1"/><circle cx="618.8" cy="288.8" r="1.4" fill="#0B0908" stroke="none" opacity="0.5"/><circle cx="501.2" cy="422.7" r="1.9" fill="#0B0908" stroke="none" opacity="1"/><circle cx="538.6" cy="277.5" r="1.5" fill="#0B0908" stroke="none" opacity="0.5"/><circle cx="684.3" cy="319.3" r="1.4" fill="#0B0908" stroke="none" opacity="0.5"/><circle cx="556.6" cy="443.9" r="1.7" fill="#0B0908" stroke="none" opacity="0.8"/><circle cx="434.3" cy="392.5" r="2.5" fill="#0B0908" stroke="none" opacity="0.8"/><circle cx="263.9" cy="431.7" r="1.3" fill="#0B0908" stroke="none" opacity="0.5"/><circle cx="727" cy="358.3" r="1.5" fill="#0B0908" stroke="none" opacity="0.5"/><circle cx="408.7" cy="296.8" r="1.5" fill="#0B0908" stroke="none" opacity="0.5"/><circle cx="416.1" cy="269.2" r="1.3" fill="#0B0908" stroke="none" opacity="0.4"/><circle cx="363.6" cy="495.5" r="1.7" fill="#0B0908" stroke="none" opacity="0.6"/><circle cx="420.8" cy="277.4" r="1.3" fill="#0B0908" stroke="none" opacity="0.5"/><circle cx="565.4" cy="559.2" r="1.2" fill="#0B0908" stroke="none" opacity="0.4"/><circle cx="490.3" cy="579.8" r="1.1" fill="#0B0908" stroke="none" opacity="0.4"/><circle cx="603.4" cy="539.5" r="1.3" fill="#0B0908" stroke="none" opacity="0.5"/><circle cx="490.6" cy="413.9" r="3" fill="#0B0908" stroke="none" opacity="1"/><circle cx="550.2" cy="576.7" r="1.1" fill="#0B0908" stroke="none" opacity="0.4"/><circle cx="593.4" cy="308.1" r="1.4" fill="#0B0908" stroke="none" opacity="0.6"/><circle cx="450.1" cy="505.2" r="1.5" fill="#0B0908" stroke="none" opacity="0.6"/><circle cx="557.1" cy="425.5" r="2.7" fill="#0B0908" stroke="none" opacity="0.9"/><circle cx="283" cy="497.5" r="1.3" fill="#0B0908" stroke="none" opacity="0.4"/><circle cx="416" cy="363.6" r="1.7" fill="#0B0908" stroke="none" opacity="0.7"/><circle cx="650.1" cy="369" r="1.5" fill="#0B0908" stroke="none" opacity="0.6"/><circle cx="437.7" cy="489" r="1.9" fill="#0B0908" stroke="none" opacity="0.7"/><circle cx="724.7" cy="316.4" r="1.2" fill="#0B0908" stroke="none" opacity="0.4"/><circle cx="758.7" cy="425.3" r="1.3" fill="#0B0908" stroke="none" opacity="0.4"/><circle cx="483.3" cy="451.3" r="2.3" fill="#0B0908" stroke="none" opacity="0.8"/><circle cx="437.2" cy="340.2" r="2.1" fill="#0B0908" stroke="none" opacity="0.7"/><circle cx="566" cy="540.3" r="1.5" fill="#0B0908" stroke="none" opacity="0.5"/><circle cx="637.7" cy="440.7" r="2.1" fill="#0B0908" stroke="none" opacity="0.7"/><circle cx="563.1" cy="431.7" r="2.4" fill="#0B0908" stroke="none" opacity="0.8"/><circle cx="756.7" cy="397.4" r="1.2" fill="#0B0908" stroke="none" opacity="0.4"/><circle cx="476.5" cy="266.5" r="1.3" fill="#0B0908" stroke="none" opacity="0.4"/><circle cx="649.1" cy="318.5" r="1.5" fill="#0B0908" stroke="none" opacity="0.5"/><circle cx="613.3" cy="434.2" r="2" fill="#0B0908" stroke="none" opacity="0.7"/><circle cx="491.3" cy="474.9" r="1.9" fill="#0B0908" stroke="none" opacity="0.8"/><circle cx="557.3" cy="357.1" r="1.6" fill="#0B0908" stroke="none" opacity="0.8"/><circle cx="661.1" cy="434.8" r="1.9" fill="#0B0908" stroke="none" opacity="0.6"/><circle cx="533.7" cy="448.5" r="2.3" fill="#0B0908" stroke="none" opacity="0.8"/><circle cx="268" cy="464.1" r="1.3" fill="#0B0908" stroke="none" opacity="0.5"/><circle cx="573.5" cy="537.5" r="1.3" fill="#0B0908" stroke="none" opacity="0.5"/><circle cx="703.9" cy="361.9" r="1.4" fill="#0B0908" stroke="none" opacity="0.5"/><circle cx="238.6" cy="368.5" r="1.2" fill="#0B0908" stroke="none" opacity="0.4"/><circle cx="663.2" cy="499.1" r="1.6" fill="#0B0908" stroke="none" opacity="0.5"/><circle cx="489.1" cy="414.4" r="2.1" fill="#0B0908" stroke="none" opacity="1"/><circle cx="623.4" cy="346.5" r="2" fill="#0B0908" stroke="none" opacity="0.6"/><circle cx="283.4" cy="426.5" r="1.4" fill="#0B0908" stroke="none" opacity="0.5"/><circle cx="557.1" cy="403" r="2.1" fill="#0B0908" stroke="none" opacity="0.9"/><circle cx="557.9" cy="420.5" r="2.5" fill="#0B0908" stroke="none" opacity="0.9"/><circle cx="477.3" cy="426.1" r="2.3" fill="#0B0908" stroke="none" opacity="0.9"/><circle cx="457" cy="414.1" r="2.1" fill="#0B0908" stroke="none" opacity="0.9"/><circle cx="383.1" cy="325.3" r="1.5" fill="#0B0908" stroke="none" opacity="0.6"/><circle cx="737.3" cy="463.2" r="1.3" fill="#0B0908" stroke="none" opacity="0.4"/><circle cx="593" cy="470" r="2.2" fill="#0B0908" stroke="none" opacity="0.7"/><circle cx="605.9" cy="415.2" r="2.2" fill="#0B0908" stroke="none" opacity="0.8"/><circle cx="729.9" cy="381.9" r="1.3" fill="#0B0908" stroke="none" opacity="0.5"/><circle cx="275.6" cy="498.9" r="1.2" fill="#0B0908" stroke="none" opacity="0.4"/><circle cx="269.5" cy="339.3" r="1.3" fill="#0B0908" stroke="none" opacity="0.4"/><circle cx="612.6" cy="486.1" r="1.8" fill="#0B0908" stroke="none" opacity="0.6"/><circle cx="568.8" cy="372.9" r="2.4" fill="#0B0908" stroke="none" opacity="0.8"/><circle cx="402.5" cy="553" r="1.3" fill="#0B0908" stroke="none" opacity="0.4"/><circle cx="780" cy="387.3" r="1.2" fill="#0B0908" stroke="none" opacity="0.4"/><circle cx="433.6" cy="288.9" r="1.5" fill="#0B0908" stroke="none" opacity="0.5"/><circle cx="425.4" cy="479.3" r="1.7" fill="#0B0908" stroke="none" opacity="0.7"/><circle cx="425.8" cy="276.9" r="1.3" fill="#0B0908" stroke="none" opacity="0.5"/><circle cx="659.3" cy="466.2" r="1.9" fill="#0B0908" stroke="none" opacity="0.6"/><circle cx="700.1" cy="388.5" r="1.7" fill="#0B0908" stroke="none" opacity="0.6"/><circle cx="480.2" cy="398.4" r="2.9" fill="#0B0908" stroke="none" opacity="0.9"/><circle cx="258.3" cy="453.1" r="1.4" fill="#0B0908" stroke="none" opacity="0.5"/><circle cx="424.8" cy="454.2" r="2.1" fill="#0B0908" stroke="none" opacity="0.8"/><circle cx="759.9" cy="335.1" r="1.2" fill="#0B0908" stroke="none" opacity="0.4"/><circle cx="642.8" cy="544.4" r="1.2" fill="#0B0908" stroke="none" opacity="0.4"/><circle cx="383.1" cy="323" r="1.6" fill="#0B0908" stroke="none" opacity="0.6"/><circle cx="651" cy="282.8" r="1.2" fill="#0B0908" stroke="none" opacity="0.4"/><circle cx="406.3" cy="347.4" r="1.7" fill="#0B0908" stroke="none" opacity="0.7"/><circle cx="704.5" cy="419.2" r="1.5" fill="#0B0908" stroke="none" opacity="0.6"/><circle cx="219.4" cy="414.1" r="1.2" fill="#0B0908" stroke="none" opacity="0.4"/><circle cx="664.5" cy="534.3" r="1.2" fill="#0B0908" stroke="none" opacity="0.4"/><circle cx="498.8" cy="443.4" r="2.2" fill="#0B0908" stroke="none" opacity="0.9"/><circle cx="665.1" cy="345" r="1.8" fill="#0B0908" stroke="none" opacity="0.6"/><circle cx="406.4" cy="372.3" r="1.7" fill="#0B0908" stroke="none" opacity="0.8"/><circle cx="640.1" cy="493.3" r="1.6" fill="#0B0908" stroke="none" opacity="0.6"/><circle cx="753" cy="448.4" r="1.3" fill="#0B0908" stroke="none" opacity="0.4"/><circle cx="755.6" cy="438.9" r="1.3" fill="#0B0908" stroke="none" opacity="0.4"/><circle cx="423.5" cy="471" r="2.1" fill="#0B0908" stroke="none" opacity="0.7"/><circle cx="691.1" cy="413.3" r="1.6" fill="#0B0908" stroke="none" opacity="0.6"/><circle cx="255.4" cy="487.3" r="1.2" fill="#0B0908" stroke="none" opacity="0.4"/><circle cx="655.3" cy="453.5" r="1.8" fill="#0B0908" stroke="none" opacity="0.6"/><circle cx="421.7" cy="524.1" r="1.4" fill="#0B0908" stroke="none" opacity="0.5"/><circle cx="735.9" cy="354.8" r="1.3" fill="#0B0908" stroke="none" opacity="0.4"/><circle cx="473.8" cy="446.4" r="2.2" fill="#0B0908" stroke="none" opacity="0.8"/></g>
</defs>
<rect width="1000" height="1000" fill="url(#lit)"/>
<rect width="1000" height="1000" filter="url(#mottle)" opacity="0.38" style="mix-blend-mode:overlay"/>
<g transform="translate(17 17) scale(0.966) rotate(-2.2 500 500)">
<use href="#motif" filter="url(#bleed)" opacity="0.5"/>
<use href="#motif" opacity="1"/>
</g>
<rect width="1000" height="1000" fill="url(#vig)"/>
<rect width="1000" height="1000" filter="url(#grain)" opacity="0.26" style="mix-blend-mode:overlay"/>
</svg>