<svg xmlns="http://www.w3.org/2000/svg" viewBox="0 0 880 1100" width="880" height="1100" role="img" preserveAspectRatio="xMidYMid slice">
<defs>
<radialGradient id="lit" cx="64.7%" cy="24.8%" r="88%">
<stop offset="0" stop-color="#a09891"/>
<stop offset="0.3" stop-color="#6d665f"/>
<stop offset="0.66" stop-color="#282523"/>
<stop offset="1" stop-color="#0a0a0a"/>
</radialGradient>
<radialGradient id="vig" cx="64.7%" cy="24.8%" r="86%">
<stop offset="0.42" stop-color="#000" stop-opacity="0"/>
<stop offset="1" stop-color="#000" stop-opacity="0.55"/>
</radialGradient>
<filter id="mottle" x="0" y="0" width="100%" height="100%">
<feTurbulence type="fractalNoise" baseFrequency="0.005 0.009" numOctaves="4" seed="697"/>
<feColorMatrix type="saturate" values="0"/>
</filter>
<filter id="grain" x="0" y="0" width="100%" height="100%">
<feTurbulence type="fractalNoise" baseFrequency="0.9" numOctaves="2" seed="714"/>
<feColorMatrix type="saturate" values="0"/>
</filter>
<filter id="bleed" x="-15%" y="-15%" width="130%" height="130%">
<feGaussianBlur stdDeviation="1.4"/>
</filter>
<g id="motif"><path d="M 476.7 706.9 A 90 90 0 0 1 476.7 533.1" fill="none" stroke="#0B0908" stroke-width="6" stroke-linecap="round" stroke-linejoin="round" opacity="1"/><path d="M 466.5 759.6 A 143.5 143.5 0 0 1 466.5 480.4" fill="none" stroke="#0B0908" stroke-width="2.6" stroke-linecap="round" stroke-linejoin="round" opacity="0.9"/><path d="M 459 812.7 A 197.1 197.1 0 0 1 459 427.3" fill="none" stroke="#0B0908" stroke-width="2.6" stroke-linecap="round" stroke-linejoin="round" opacity="0.8"/><path d="M 454.3 866.4 A 250.6 250.6 0 0 1 454.3 373.6" fill="none" stroke="#0B0908" stroke-width="6" stroke-linecap="round" stroke-linejoin="round" opacity="0.7"/><path d="M 452.4 920.4 A 304.1 304.1 0 0 1 452.4 319.6" fill="none" stroke="#0B0908" stroke-width="2.6" stroke-linecap="round" stroke-linejoin="round" opacity="0.6"/><path d="M 453.3 974.6 A 357.6 357.6 0 0 1 453.3 265.4" fill="none" stroke="#0B0908" stroke-width="2.6" stroke-linecap="round" stroke-linejoin="round" opacity="0.5"/><circle cx="500" cy="620" r="14" fill="#0B0908" stroke="none"/><circle cx="688.6" cy="479.5" r="1.4" fill="#0B0908" stroke="none" opacity="0.5"/><circle cx="402.9" cy="355.1" r="1.8" fill="#0B0908" stroke="none" opacity="0.7"/><circle cx="525.8" cy="578.5" r="1.1" fill="#0B0908" stroke="none" opacity="0.4"/><circle cx="641.2" cy="268.7" r="1.2" fill="#0B0908" stroke="none" opacity="0.4"/><circle cx="592.3" cy="346.5" r="2.1" fill="#0B0908" stroke="none" opacity="0.7"/><circle cx="547.5" cy="391.2" r="2.1" fill="#0B0908" stroke="none" opacity="0.9"/><circle cx="205" cy="412.2" r="1.1" fill="#0B0908" stroke="none" opacity="0.4"/><circle cx="456.5" cy="366.5" r="1.8" fill="#0B0908" stroke="none" opacity="0.8"/><circle cx="491.6" cy="381.3" r="2.7" fill="#0B0908" stroke="none" opacity="0.9"/><circle cx="487.7" cy="319" r="1.7" fill="#0B0908" stroke="none" opacity="0.7"/><circle cx="793.2" cy="381.5" r="1.1" fill="#0B0908" stroke="none" opacity="0.4"/><circle cx="655.3" cy="470.7" r="1.5" fill="#0B0908" stroke="none" opacity="0.6"/><circle cx="763.5" cy="429.3" r="1.3" fill="#0B0908" stroke="none" opacity="0.4"/><circle cx="447.3" cy="383.3" r="2.6" fill="#0B0908" stroke="none" opacity="0.8"/><circle cx="607.4" cy="359.1" r="2.2" fill="#0B0908" stroke="none" opacity="0.7"/><circle cx="652.3" cy="290.4" r="1.3" fill="#0B0908" stroke="none" opacity="0.4"/><circle cx="431.9" cy="401.4" r="2" fill="#0B0908" stroke="none" opacity="0.8"/><circle cx="616.2" cy="299" r="1.5" fill="#0B0908" stroke="none" opacity="0.5"/><circle cx="402.8" cy="326.5" r="1.9" fill="#0B0908" stroke="none" opacity="0.6"/><circle cx="256" cy="402.2" r="1.3" fill="#0B0908" stroke="none" opacity="0.5"/><circle cx="772.6" cy="449.3" r="1.2" fill="#0B0908" stroke="none" opacity="0.4"/><circle cx="522.2" cy="441.8" r="2.1" fill="#0B0908" stroke="none" opacity="0.9"/><circle cx="246.3" cy="469.2" r="1.2" fill="#0B0908" stroke="none" opacity="0.4"/><circle cx="535.2" cy="390.9" r="2.8" fill="#0B0908" stroke="none" opacity="0.9"/><circle cx="327.2" cy="532.9" r="1.2" fill="#0B0908" stroke="none" opacity="0.4"/><circle cx="411.5" cy="488.7" r="1.6" fill="#0B0908" stroke="none" opacity="0.6"/><circle cx="601.3" cy="399" r="2.3" fill="#0B0908" stroke="none" opacity="0.8"/><circle cx="614.6" cy="305.4" r="1.4" fill="#0B0908" stroke="none" opacity="0.5"/><circle cx="436" cy="459.6" r="2" fill="#0B0908" stroke="none" opacity="0.8"/><circle cx="429.8" cy="545.4" r="1.3" fill="#0B0908" stroke="none" opacity="0.5"/><circle cx="615.6" cy="438" r="1.7" fill="#0B0908" stroke="none" opacity="0.7"/><circle cx="329.6" cy="548.1" r="1.1" fill="#0B0908" stroke="none" opacity="0.4"/><circle cx="674.8" cy="278.8" r="1.2" fill="#0B0908" stroke="none" opacity="0.4"/><circle cx="519.3" cy="352.9" r="1.9" fill="#0B0908" stroke="none" opacity="0.8"/><circle cx="500" cy="253.8" r="1.2" fill="#0B0908" stroke="none" opacity="0.4"/><circle cx="413.5" cy="421.3" r="1.9" fill="#0B0908" stroke="none" opacity="0.8"/><circle cx="547" cy="349.6" r="2" fill="#0B0908" stroke="none" opacity="0.7"/><circle cx="499" cy="461.8" r="1.7" fill="#0B0908" stroke="none" opacity="0.8"/><circle cx="652.8" cy="307.1" r="1.5" fill="#0B0908" stroke="none" opacity="0.5"/><circle cx="536.5" cy="550.6" r="1.3" fill="#0B0908" stroke="none" opacity="0.5"/><circle cx="761.9" cy="341.2" r="1.2" fill="#0B0908" stroke="none" opacity="0.4"/><circle cx="293.9" cy="416.1" r="1.5" fill="#0B0908" stroke="none" opacity="0.6"/><circle cx="390.6" cy="537.8" r="1.4" fill="#0B0908" stroke="none" opacity="0.5"/><circle cx="295.9" cy="469.2" r="1.4" fill="#0B0908" stroke="none" opacity="0.5"/><circle cx="678.7" cy="436" r="1.8" fill="#0B0908" stroke="none" opacity="0.6"/><circle cx="438.7" cy="398.5" r="1.9" fill="#0B0908" stroke="none" opacity="0.9"/><circle cx="641.8" cy="481.6" r="1.5" fill="#0B0908" stroke="none" opacity="0.6"/><circle cx="326" cy="402.7" r="1.7" fill="#0B0908" stroke="none" opacity="0.6"/><circle cx="603.4" cy="319.6" r="1.5" fill="#0B0908" stroke="none" opacity="0.6"/><circle cx="467.4" cy="361.7" r="2.4" fill="#0B0908" stroke="none" opacity="0.8"/><circle cx="388.5" cy="319.3" r="1.4" fill="#0B0908" stroke="none" opacity="0.6"/><circle cx="625.3" cy="274.2" r="1.2" fill="#0B0908" stroke="none" opacity="0.4"/><circle cx="747.3" cy="457.3" r="1.2" fill="#0B0908" stroke="none" opacity="0.4"/><circle cx="731.9" cy="487" r="1.3" fill="#0B0908" stroke="none" opacity="0.4"/><circle cx="551.1" cy="400.9" r="2.5" fill="#0B0908" stroke="none" opacity="0.9"/><circle cx="546.3" cy="378.1" r="2.6" fill="#0B0908" stroke="none" opacity="0.8"/><circle cx="464.2" cy="436" r="2.5" fill="#0B0908" stroke="none" opacity="0.9"/><circle cx="568" cy="513.4" r="1.6" fill="#0B0908" stroke="none" opacity="0.6"/><circle cx="422.3" cy="498.8" r="1.7" fill="#0B0908" stroke="none" opacity="0.6"/><circle cx="603.1" cy="506.3" r="1.5" fill="#0B0908" stroke="none" opacity="0.6"/><circle cx="374" cy="378" r="2" fill="#0B0908" stroke="none" opacity="0.7"/><circle cx="568.4" cy="423.5" r="2.5" fill="#0B0908" stroke="none" opacity="0.8"/><circle cx="750.7" cy="498.2" r="1.1" fill="#0B0908" stroke="none" opacity="0.4"/><circle cx="564.7" cy="497.4" r="1.8" fill="#0B0908" stroke="none" opacity="0.6"/><circle cx="787.7" cy="407.9" r="1.2" fill="#0B0908" stroke="none" opacity="0.4"/><circle cx="512.1" cy="383.9" r="2.8" fill="#0B0908" stroke="none" opacity="0.9"/><circle cx="390.9" cy="261.2" r="1.2" fill="#0B0908" stroke="none" opacity="0.4"/><circle cx="497.2" cy="376.8" r="1.8" fill="#0B0908" stroke="none" opacity="0.9"/><circle cx="363.6" cy="357.2" r="1.6" fill="#0B0908" stroke="none" opacity="0.6"/><circle cx="276.1" cy="458.1" r="1.5" fill="#0B0908" stroke="none" opacity="0.5"/><circle cx="713.8" cy="361.3" r="1.4" fill="#0B0908" stroke="none" opacity="0.5"/><circle cx="705.2" cy="395.7" r="1.7" fill="#0B0908" stroke="none" opacity="0.6"/><circle cx="364.4" cy="280.2" r="1.2" fill="#0B0908" stroke="none" opacity="0.4"/><circle cx="350.1" cy="469.1" r="1.4" fill="#0B0908" stroke="none" opacity="0.6"/><circle cx="608.2" cy="427.4" r="2.1" fill="#0B0908" stroke="none" opacity="0.8"/><circle cx="364.2" cy="511" r="1.4" fill="#0B0908" stroke="none" opacity="0.5"/><circle cx="705" cy="340.9" r="1.4" fill="#0B0908" stroke="none" opacity="0.5"/><circle cx="307.7" cy="477.1" r="1.4" fill="#0B0908" stroke="none" opacity="0.5"/><circle cx="447.5" cy="568.3" r="1.2" fill="#0B0908" stroke="none" opacity="0.4"/><circle cx="418.9" cy="263.9" r="1.2" fill="#0B0908" stroke="none" opacity="0.4"/><circle cx="450.7" cy="430" r="2.6" fill="#0B0908" stroke="none" opacity="0.9"/><circle cx="515.6" cy="260.9" r="1.3" fill="#0B0908" stroke="none" opacity="0.4"/><circle cx="479.4" cy="448.1" r="1.8" fill="#0B0908" stroke="none" opacity="0.8"/><circle cx="367.8" cy="556.1" r="1.2" fill="#0B0908" stroke="none" opacity="0.4"/><circle cx="777.4" cy="446.6" r="1.2" fill="#0B0908" stroke="none" opacity="0.4"/><circle cx="439" cy="572.9" r="1.1" fill="#0B0908" stroke="none" opacity="0.4"/><circle cx="560.1" cy="277.3" r="1.3" fill="#0B0908" stroke="none" opacity="0.5"/><circle cx="549" cy="476.5" r="1.8" fill="#0B0908" stroke="none" opacity="0.7"/><circle cx="452.9" cy="576.2" r="1.1" fill="#0B0908" stroke="none" opacity="0.4"/><circle cx="528.3" cy="412.1" r="2.1" fill="#0B0908" stroke="none" opacity="0.9"/><circle cx="706.5" cy="362.5" r="1.4" fill="#0B0908" stroke="none" opacity="0.5"/><circle cx="381.7" cy="279.9" r="1.3" fill="#0B0908" stroke="none" opacity="0.4"/><circle cx="271.6" cy="513.5" r="1.1" fill="#0B0908" stroke="none" opacity="0.4"/><circle cx="553.4" cy="394.9" r="2.5" fill="#0B0908" stroke="none" opacity="0.9"/><circle cx="619.1" cy="350.3" r="1.7" fill="#0B0908" stroke="none" opacity="0.7"/><circle cx="376.9" cy="285.2" r="1.4" fill="#0B0908" stroke="none" opacity="0.5"/><circle cx="736.3" cy="479" r="1.2" fill="#0B0908" stroke="none" opacity="0.4"/><circle cx="304.5" cy="512.2" r="1.2" fill="#0B0908" stroke="none" opacity="0.4"/><circle cx="368" cy="377.6" r="1.8" fill="#0B0908" stroke="none" opacity="0.7"/><circle cx="541.3" cy="419.1" r="2.4" fill="#0B0908" stroke="none" opacity="0.9"/><circle cx="506.3" cy="421.8" r="2.4" fill="#0B0908" stroke="none" opacity="1"/><circle cx="677.6" cy="536.9" r="1.2" fill="#0B0908" stroke="none" opacity="0.4"/><circle cx="581.4" cy="360.1" r="2.3" fill="#0B0908" stroke="none" opacity="0.7"/><circle cx="434.4" cy="538.6" r="1.5" fill="#0B0908" stroke="none" opacity="0.5"/><circle cx="625.1" cy="559.2" r="1.2" fill="#0B0908" stroke="none" opacity="0.4"/><circle cx="787.7" cy="409.2" r="1.2" fill="#0B0908" stroke="none" opacity="0.4"/><circle cx="541.7" cy="281.5" r="1.6" fill="#0B0908" stroke="none" opacity="0.5"/><circle cx="698.5" cy="443.9" r="1.5" fill="#0B0908" stroke="none" opacity="0.6"/><circle cx="745.6" cy="417.7" r="1.4" fill="#0B0908" stroke="none" opacity="0.5"/><circle cx="226.8" cy="375.2" r="1.2" fill="#0B0908" stroke="none" opacity="0.4"/><circle cx="554.1" cy="398.3" r="2.5" fill="#0B0908" stroke="none" opacity="0.9"/><circle cx="686.6" cy="379" r="1.5" fill="#0B0908" stroke="none" opacity="0.6"/><circle cx="645.8" cy="512.2" r="1.5" fill="#0B0908" stroke="none" opacity="0.5"/><circle cx="279" cy="431.4" r="1.5" fill="#0B0908" stroke="none" opacity="0.5"/><circle cx="524.5" cy="327.6" r="1.8" fill="#0B0908" stroke="none" opacity="0.7"/><circle cx="394.3" cy="349.4" r="2.1" fill="#0B0908" stroke="none" opacity="0.7"/><circle cx="270.5" cy="429.5" r="1.4" fill="#0B0908" stroke="none" opacity="0.5"/><circle cx="280.8" cy="466.8" r="1.5" fill="#0B0908" stroke="none" opacity="0.5"/><circle cx="591.8" cy="307.4" r="1.7" fill="#0B0908" stroke="none" opacity="0.6"/><circle cx="487.6" cy="470.8" r="2.3" fill="#0B0908" stroke="none" opacity="0.8"/><circle cx="583.4" cy="397.2" r="2.3" fill="#0B0908" stroke="none" opacity="0.8"/><circle cx="554.2" cy="412" r="2.7" fill="#0B0908" stroke="none" opacity="0.9"/><circle cx="685.2" cy="399.3" r="1.4" fill="#0B0908" stroke="none" opacity="0.6"/><circle cx="563.1" cy="447.9" r="2.4" fill="#0B0908" stroke="none" opacity="0.8"/><circle cx="571.6" cy="556.7" r="1.2" fill="#0B0908" stroke="none" opacity="0.4"/><circle cx="262.5" cy="431.6" r="1.5" fill="#0B0908" stroke="none" opacity="0.5"/><circle cx="590.9" cy="492" r="1.8" fill="#0B0908" stroke="none" opacity="0.6"/><circle cx="388.6" cy="268.4" r="1.2" fill="#0B0908" stroke="none" opacity="0.4"/><circle cx="490" cy="419.9" r="2.2" fill="#0B0908" stroke="none" opacity="1"/><circle cx="399.8" cy="345.8" r="2" fill="#0B0908" stroke="none" opacity="0.7"/><circle cx="382.5" cy="479.8" r="1.7" fill="#0B0908" stroke="none" opacity="0.6"/><circle cx="747.7" cy="315.6" r="1.1" fill="#0B0908" stroke="none" opacity="0.4"/><circle cx="449.9" cy="292.8" r="1.5" fill="#0B0908" stroke="none" opacity="0.5"/><circle cx="750" cy="488.3" r="1.2" fill="#0B0908" stroke="none" opacity="0.4"/><circle cx="402.3" cy="253.8" r="1.1" fill="#0B0908" stroke="none" opacity="0.4"/><circle cx="372.2" cy="471.8" r="1.5" fill="#0B0908" stroke="none" opacity="0.6"/><circle cx="499.8" cy="429.6" r="2.6" fill="#0B0908" stroke="none" opacity="0.9"/><circle cx="704.8" cy="408.6" r="1.7" fill="#0B0908" stroke="none" opacity="0.6"/><circle cx="410.1" cy="365.7" r="2.1" fill="#0B0908" stroke="none" opacity="0.7"/><circle cx="369.5" cy="501.9" r="1.5" fill="#0B0908" stroke="none" opacity="0.5"/><circle cx="665.3" cy="525.6" r="1.2" fill="#0B0908" stroke="none" opacity="0.4"/><circle cx="792.8" cy="426.4" r="1.1" fill="#0B0908" stroke="none" opacity="0.4"/><circle cx="307.6" cy="378" r="1.5" fill="#0B0908" stroke="none" opacity="0.6"/><circle cx="490.9" cy="533.4" r="1.6" fill="#0B0908" stroke="none" opacity="0.5"/><circle cx="573.4" cy="319.6" r="1.7" fill="#0B0908" stroke="none" opacity="0.6"/><circle cx="531.2" cy="431.8" r="2.2" fill="#0B0908" stroke="none" opacity="0.9"/><circle cx="516.8" cy="393.6" r="2.3" fill="#0B0908" stroke="none" opacity="0.9"/><circle cx="562.2" cy="275.4" r="1.4" fill="#0B0908" stroke="none" opacity="0.5"/><circle cx="280.7" cy="358.9" r="1.3" fill="#0B0908" stroke="none" opacity="0.5"/><circle cx="393" cy="449.5" r="1.6" fill="#0B0908" stroke="none" opacity="0.7"/><circle cx="342.4" cy="432.3" r="1.9" fill="#0B0908" stroke="none" opacity="0.6"/><circle cx="451.6" cy="369.4" r="1.8" fill="#0B0908" stroke="none" opacity="0.8"/><circle cx="281.5" cy="451.8" r="1.5" fill="#0B0908" stroke="none" opacity="0.5"/><circle cx="421.6" cy="504.7" r="1.5" fill="#0B0908" stroke="none" opacity="0.6"/><circle cx="781.3" cy="425.2" r="1.2" fill="#0B0908" stroke="none" opacity="0.4"/><circle cx="477.1" cy="441" r="2.4" fill="#0B0908" stroke="none" opacity="0.9"/><circle cx="697.4" cy="444.9" r="1.4" fill="#0B0908" stroke="none" opacity="0.6"/><circle cx="435.9" cy="353.9" r="2.2" fill="#0B0908" stroke="none" opacity="0.7"/><circle cx="760.9" cy="474.4" r="1.2" fill="#0B0908" stroke="none" opacity="0.4"/><circle cx="369.4" cy="471.7" r="1.6" fill="#0B0908" stroke="none" opacity="0.6"/><circle cx="359.1" cy="512.6" r="1.4" fill="#0B0908" stroke="none" opacity="0.5"/><circle cx="482.4" cy="423.8" r="2" fill="#0B0908" stroke="none" opacity="0.9"/><circle cx="388.8" cy="313.4" r="1.5" fill="#0B0908" stroke="none" opacity="0.6"/><circle cx="524.7" cy="564.7" r="1.3" fill="#0B0908" stroke="none" opacity="0.4"/><circle cx="470.4" cy="484.9" r="2.1" fill="#0B0908" stroke="none" opacity="0.7"/><circle cx="639" cy="505.4" r="1.6" fill="#0B0908" stroke="none" opacity="0.5"/><circle cx="645.1" cy="411.2" r="2" fill="#0B0908" stroke="none" opacity="0.7"/><circle cx="663.5" cy="483.3" r="1.7" fill="#0B0908" stroke="none" opacity="0.5"/><circle cx="486" cy="406.6" r="2.8" fill="#0B0908" stroke="none" opacity="1"/><circle cx="686.6" cy="482.3" r="1.5" fill="#0B0908" stroke="none" opacity="0.5"/><circle cx="731.4" cy="388.8" r="1.3" fill="#0B0908" stroke="none" opacity="0.5"/><circle cx="404.4" cy="477.8" r="1.7" fill="#0B0908" stroke="none" opacity="0.7"/><circle cx="253.7" cy="387.6" r="1.3" fill="#0B0908" stroke="none" opacity="0.5"/><circle cx="529" cy="377.4" r="2.2" fill="#0B0908" stroke="none" opacity="0.9"/><circle cx="693.1" cy="299.4" r="1.2" fill="#0B0908" stroke="none" opacity="0.4"/><circle cx="433.4" cy="549.4" r="1.3" fill="#0B0908" stroke="none" opacity="0.4"/><circle cx="241.9" cy="410.3" r="1.2" fill="#0B0908" stroke="none" opacity="0.4"/><circle cx="502.4" cy="440.9" r="2.7" fill="#0B0908" stroke="none" opacity="0.9"/><circle cx="594.1" cy="435.9" r="1.7" fill="#0B0908" stroke="none" opacity="0.8"/><circle cx="345.5" cy="457.7" r="1.6" fill="#0B0908" stroke="none" opacity="0.6"/><circle cx="584" cy="449.5" r="2.4" fill="#0B0908" stroke="none" opacity="0.8"/><circle cx="499.7" cy="467.8" r="2.1" fill="#0B0908" stroke="none" opacity="0.8"/><circle cx="394" cy="403" r="1.7" fill="#0B0908" stroke="none" opacity="0.8"/><circle cx="477.8" cy="430.8" r="2.2" fill="#0B0908" stroke="none" opacity="0.9"/><circle cx="535.7" cy="474.6" r="1.6" fill="#0B0908" stroke="none" opacity="0.7"/><circle cx="657.6" cy="347.8" r="1.7" fill="#0B0908" stroke="none" opacity="0.6"/><circle cx="337.1" cy="552.6" r="1.1" fill="#0B0908" stroke="none" opacity="0.4"/><circle cx="254.6" cy="461.1" r="1.3" fill="#0B0908" stroke="none" opacity="0.4"/><circle cx="436.5" cy="456.8" r="2.3" fill="#0B0908" stroke="none" opacity="0.8"/><circle cx="684.9" cy="512.1" r="1.3" fill="#0B0908" stroke="none" opacity="0.4"/><circle cx="347" cy="346.2" r="1.6" fill="#0B0908" stroke="none" opacity="0.6"/><circle cx="387.2" cy="511.3" r="1.4" fill="#0B0908" stroke="none" opacity="0.5"/><circle cx="765.3" cy="480.8" r="1.1" fill="#0B0908" stroke="none" opacity="0.4"/><circle cx="503" cy="425.7" r="1.9" fill="#0B0908" stroke="none" opacity="0.9"/><circle cx="476.3" cy="333.9" r="2" fill="#0B0908" stroke="none" opacity="0.7"/><circle cx="275.1" cy="444.2" r="1.3" fill="#0B0908" stroke="none" opacity="0.5"/><circle cx="413.2" cy="563.7" r="1.2" fill="#0B0908" stroke="none" opacity="0.4"/><circle cx="515.7" cy="389.1" r="2.2" fill="#0B0908" stroke="none" opacity="0.9"/><circle cx="630.7" cy="423.5" r="2.1" fill="#0B0908" stroke="none" opacity="0.7"/><circle cx="242.4" cy="416.6" r="1.3" fill="#0B0908" stroke="none" opacity="0.4"/><circle cx="448.9" cy="337.6" r="1.6" fill="#0B0908" stroke="none" opacity="0.7"/><circle cx="427.1" cy="415.1" r="1.9" fill="#0B0908" stroke="none" opacity="0.8"/><circle cx="537.1" cy="454" r="2" fill="#0B0908" stroke="none" opacity="0.8"/><circle cx="454.5" cy="433.4" r="2.2" fill="#0B0908" stroke="none" opacity="0.9"/><circle cx="350.2" cy="284.6" r="1.2" fill="#0B0908" stroke="none" opacity="0.4"/><circle cx="697.4" cy="459.6" r="1.4" fill="#0B0908" stroke="none" opacity="0.5"/><circle cx="679.1" cy="289.7" r="1.2" fill="#0B0908" stroke="none" opacity="0.4"/><circle cx="528.2" cy="390.2" r="2" fill="#0B0908" stroke="none" opacity="0.9"/><circle cx="243.1" cy="367.7" r="1.2" fill="#0B0908" stroke="none" opacity="0.4"/><circle cx="647" cy="345.2" r="1.6" fill="#0B0908" stroke="none" opacity="0.6"/><circle cx="771.2" cy="366.8" r="1.2" fill="#0B0908" stroke="none" opacity="0.4"/><circle cx="291.4" cy="369.2" r="1.5" fill="#0B0908" stroke="none" opacity="0.5"/><circle cx="718.1" cy="448.9" r="1.6" fill="#0B0908" stroke="none" opacity="0.5"/><circle cx="599.7" cy="544.2" r="1.3" fill="#0B0908" stroke="none" opacity="0.4"/><circle cx="472.1" cy="572.3" r="1.2" fill="#0B0908" stroke="none" opacity="0.4"/><circle cx="381.9" cy="271.2" r="1.3" fill="#0B0908" stroke="none" opacity="0.4"/><circle cx="319.7" cy="440.4" r="1.5" fill="#0B0908" stroke="none" opacity="0.6"/><circle cx="457.8" cy="515.3" r="1.7" fill="#0B0908" stroke="none" opacity="0.6"/><circle cx="528.9" cy="429.3" r="2.5" fill="#0B0908" stroke="none" opacity="0.9"/><circle cx="362.4" cy="551.9" r="1.1" fill="#0B0908" stroke="none" opacity="0.4"/></g>
</defs>
<rect width="880" height="1100" fill="url(#lit)"/>
<rect width="880" height="1100" filter="url(#mottle)" opacity="0.38" style="mix-blend-mode:overlay"/>
<g transform="translate(-165 26.4) scale(1.3367) rotate(-1.4 452.6 391.7)">
<use href="#motif" filter="url(#bleed)" opacity="0.5"/>
<use href="#motif" opacity="1"/>
</g>
<rect width="880" height="1100" fill="url(#vig)"/>
<rect width="880" height="1100" filter="url(#grain)" opacity="0.26" style="mix-blend-mode:overlay"/>
</svg>