<svg xmlns="http://www.w3.org/2000/svg" viewBox="0 0 1280 854" width="1280" height="854" role="img" preserveAspectRatio="xMidYMid slice">
<defs>
<radialGradient id="lit" cx="29%" cy="22.1%" r="88%">
<stop offset="0" stop-color="#a09891"/>
<stop offset="0.3" stop-color="#6d665f"/>
<stop offset="0.66" stop-color="#282523"/>
<stop offset="1" stop-color="#0a0a0a"/>
</radialGradient>
<radialGradient id="vig" cx="29%" cy="22.1%" r="86%">
<stop offset="0.42" stop-color="#000" stop-opacity="0"/>
<stop offset="1" stop-color="#000" stop-opacity="0.55"/>
</radialGradient>
<filter id="mottle" x="0" y="0" width="100%" height="100%">
<feTurbulence type="fractalNoise" baseFrequency="0.005 0.009" numOctaves="4" seed="154"/>
<feColorMatrix type="saturate" values="0"/>
</filter>
<filter id="grain" x="0" y="0" width="100%" height="100%">
<feTurbulence type="fractalNoise" baseFrequency="0.9" numOctaves="2" seed="171"/>
<feColorMatrix type="saturate" values="0"/>
</filter>
<filter id="bleed" x="-15%" y="-15%" width="130%" height="130%">
<feGaussianBlur stdDeviation="2.1"/>
</filter>
<g id="motif"><path d="M 640.6 500 C 646.2 504.2, 664.5 515.5, 674 525.4 C 683.6 535.2, 692.4 547.2, 698.1 559.2 C 703.8 571.3, 707.6 585, 708.3 597.6 C 709 610.3, 706.9 623.8, 702.3 635.2 C 697.7 646.7, 690 657.9, 680.8 666.4 C 671.6 674.8, 659.4 681.9, 647 686.1 C 634.5 690.3, 619.9 692.2, 606.1 691.6 C 592.3 691, 577.5 687.5, 564.4 682.2 C 551.3 677, 538.3 668.9, 527.6 660.1 C 516.8 651.3, 507.3 640.2, 500 629.4 C 492.7 618.6, 487.3 606.4, 483.6 595.5 C 479.8 584.6, 478.3 573.3, 477.4 563.9 C 476.6 554.5, 477.7 545.8, 478.4 539 C 479.1 532.2, 481.1 526.9, 481.7 523.2 C 482.2 519.5, 483.1 517.7, 481.9 516.6 C 480.8 515.6, 478.8 516.3, 474.8 516.9 C 470.7 517.4, 465 519.2, 457.6 519.9 C 450.3 520.5, 440.8 521.5, 430.6 520.8 C 420.3 520, 408.1 518.6, 396.2 515.1 C 384.3 511.7, 371.1 506.7, 359.4 500 C 347.7 493.3, 335.5 484.5, 326 474.6 C 316.4 464.8, 307.6 452.8, 301.9 440.8 C 296.2 428.7, 292.4 415, 291.7 402.4 C 291 389.7, 293.1 376.2, 297.7 364.8 C 302.3 353.3, 310 342.1, 319.2 333.6 C 328.4 325.2, 340.6 318.1, 353 313.9 C 365.5 309.7, 380.1 307.8, 393.9 308.4 C 407.7 309, 422.5 312.5, 435.6 317.8 C 448.7 323, 461.7 331.1, 472.4 339.9 C 483.2 348.7, 492.7 359.8, 500 370.6 C 507.3 381.4, 512.7 393.6, 516.4 404.5 C 520.2 415.4, 521.7 426.7, 522.6 436.1 C 523.4 445.5, 522.3 454.2, 521.6 461 C 520.9 467.8, 518.9 473.1, 518.3 476.8 C 517.8 480.5, 516.9 482.3, 518.1 483.4 C 519.2 484.4, 521.2 483.7, 525.2 483.1 C 529.3 482.6, 535 480.8, 542.4 480.1 C 549.7 479.5, 559.2 478.5, 569.4 479.2 C 579.7 480, 591.9 481.4, 603.8 484.9 C 615.7 488.3, 634.5 497.5, 640.6 500 C 646.8 502.5, 635.1 495.8, 640.6 500 Z" fill="none" stroke="#0B0908" stroke-width="6" stroke-linecap="round" stroke-linejoin="round" opacity="1"/><path d="M 620.1 691.5 C 615.2 695.8, 601.9 711.1, 590.7 717.5 C 579.6 723.8, 566 728.2, 553 729.5 C 540.1 730.9, 525.6 729.6, 512.9 725.8 C 500.1 722, 487.1 715.2, 476.4 706.9 C 465.7 698.6, 455.9 687.5, 448.7 676.1 C 441.5 664.7, 436.2 651.1, 433.1 638.3 C 429.9 625.5, 429.3 611.6, 430 599.2 C 430.6 586.9, 433.8 574.6, 437.2 564.2 C 440.6 553.8, 446 544.4, 450.5 536.8 C 455.1 529.3, 460.6 523.5, 464.5 518.9 C 468.4 514.3, 472.1 511.6, 473.8 509.3 C 475.4 507, 475.9 506.3, 474.4 505 C 472.8 503.8, 469.4 503.4, 464.5 501.7 C 459.7 500, 452.6 498.3, 445.2 494.7 C 437.7 491.1, 428.4 486.6, 419.7 480.2 C 411.1 473.8, 401.3 465.8, 393.4 456.3 C 385.4 446.9, 377.4 435.5, 372 423.5 C 366.5 411.5, 362.2 397.8, 360.7 384.6 C 359.2 371.4, 359.8 357.1, 363 344.4 C 366.2 331.7, 372.1 318.9, 379.9 308.5 C 387.6 298.2, 398.1 288.9, 409.3 282.5 C 420.4 276.2, 434 271.8, 447 270.5 C 459.9 269.1, 474.4 270.4, 487.1 274.2 C 499.9 278, 512.9 284.8, 523.6 293.1 C 534.3 301.4, 544.1 312.5, 551.3 323.9 C 558.5 335.3, 563.8 348.9, 566.9 361.7 C 570.1 374.5, 570.7 388.4, 570 400.8 C 569.4 413.1, 566.2 425.4, 562.8 435.8 C 559.4 446.2, 554 455.6, 549.5 463.2 C 544.9 470.7, 539.4 476.5, 535.5 481.1 C 531.6 485.7, 527.9 488.4, 526.2 490.7 C 524.6 493, 524.1 493.7, 525.6 495 C 527.2 496.2, 530.6 496.6, 535.5 498.3 C 540.3 500, 547.4 501.7, 554.8 505.3 C 562.3 508.9, 571.6 513.4, 580.3 519.8 C 588.9 526.2, 598.7 534.2, 606.6 543.7 C 614.6 553.1, 622.6 564.5, 628 576.5 C 633.5 588.5, 637.8 602.2, 639.3 615.4 C 640.8 628.6, 640.2 642.9, 637 655.6 C 633.8 668.3, 623 685.5, 620.1 691.5 C 617.3 697.4, 625.1 687.1, 620.1 691.5 Z" fill="none" stroke="#0B0908" stroke-width="3.2" stroke-linecap="round" stroke-linejoin="round" opacity="0.9"/><path d="M 379.9 691.5 C 377 685.5, 366.2 668.3, 363 655.6 C 359.8 642.9, 359.2 628.6, 360.7 615.4 C 362.2 602.2, 366.5 588.5, 372 576.5 C 377.4 564.5, 385.4 553.1, 393.4 543.7 C 401.3 534.2, 411.1 526.2, 419.7 519.8 C 428.4 513.4, 437.7 508.9, 445.2 505.3 C 452.6 501.7, 459.7 500, 464.5 498.3 C 469.4 496.6, 472.8 496.2, 474.4 495 C 475.9 493.7, 475.4 493, 473.8 490.7 C 472.1 488.4, 468.4 485.7, 464.5 481.1 C 460.6 476.5, 455.1 470.7, 450.5 463.2 C 446 455.6, 440.6 446.2, 437.2 435.8 C 433.8 425.4, 430.6 413.1, 430 400.8 C 429.3 388.4, 429.9 374.5, 433.1 361.7 C 436.2 348.9, 441.5 335.3, 448.7 323.9 C 455.9 312.5, 465.7 301.4, 476.4 293.1 C 487.1 284.8, 500.1 278, 512.9 274.2 C 525.6 270.4, 540.1 269.1, 553 270.5 C 566 271.8, 579.6 276.2, 590.7 282.5 C 601.9 288.9, 612.4 298.2, 620.1 308.5 C 627.9 318.9, 633.8 331.7, 637 344.4 C 640.2 357.1, 640.8 371.4, 639.3 384.6 C 637.8 397.8, 633.5 411.5, 628 423.5 C 622.6 435.5, 614.6 446.9, 606.6 456.3 C 598.7 465.8, 588.9 473.8, 580.3 480.2 C 571.6 486.6, 562.3 491.1, 554.8 494.7 C 547.4 498.3, 540.3 500, 535.5 501.7 C 530.6 503.4, 527.2 503.8, 525.6 505 C 524.1 506.3, 524.6 507, 526.2 509.3 C 527.9 511.6, 531.6 514.3, 535.5 518.9 C 539.4 523.5, 544.9 529.3, 549.5 536.8 C 554 544.4, 559.4 553.8, 562.8 564.2 C 566.2 574.6, 569.4 586.9, 570 599.2 C 570.7 611.6, 570.1 625.5, 566.9 638.3 C 563.8 651.1, 558.5 664.7, 551.3 676.1 C 544.1 687.5, 534.3 698.6, 523.6 706.9 C 512.9 715.2, 499.9 722, 487.1 725.8 C 474.4 729.6, 459.9 730.9, 447 729.5 C 434 728.2, 420.4 723.8, 409.3 717.5 C 398.1 711.1, 384.8 695.8, 379.9 691.5 C 374.9 687.1, 382.7 697.4, 379.9 691.5 Z" fill="none" stroke="#0B0908" stroke-width="6" stroke-linecap="round" stroke-linejoin="round" opacity="0.9"/><path d="M 359.4 500 C 365.5 497.5, 384.3 488.3, 396.2 484.9 C 408.1 481.4, 420.3 480, 430.6 479.2 C 440.8 478.5, 450.3 479.5, 457.6 480.1 C 465 480.8, 470.7 482.6, 474.8 483.1 C 478.8 483.7, 480.8 484.4, 481.9 483.4 C 483.1 482.3, 482.2 480.5, 481.7 476.8 C 481.1 473.1, 479.1 467.8, 478.4 461 C 477.7 454.2, 476.6 445.5, 477.4 436.1 C 478.3 426.7, 479.8 415.4, 483.6 404.5 C 487.3 393.6, 492.7 381.4, 500 370.6 C 507.3 359.8, 516.8 348.7, 527.6 339.9 C 538.3 331.1, 551.3 323, 564.4 317.8 C 577.5 312.5, 592.3 309, 606.1 308.4 C 619.9 307.8, 634.5 309.7, 647 313.9 C 659.4 318.1, 671.6 325.2, 680.8 333.6 C 690 342.1, 697.7 353.3, 702.3 364.8 C 706.9 376.2, 709 389.7, 708.3 402.4 C 707.6 415, 703.8 428.7, 698.1 440.8 C 692.4 452.8, 683.6 464.8, 674 474.6 C 664.5 484.5, 652.3 493.3, 640.6 500 C 628.9 506.7, 615.7 511.7, 603.8 515.1 C 591.9 518.6, 579.7 520, 569.4 520.8 C 559.2 521.5, 549.7 520.5, 542.4 519.9 C 535 519.2, 529.3 517.4, 525.2 516.9 C 521.2 516.3, 519.2 515.6, 518.1 516.6 C 516.9 517.7, 517.8 519.5, 518.3 523.2 C 518.9 526.9, 520.9 532.2, 521.6 539 C 522.3 545.8, 523.4 554.5, 522.6 563.9 C 521.7 573.3, 520.2 584.6, 516.4 595.5 C 512.7 606.4, 507.3 618.6, 500 629.4 C 492.7 640.2, 483.2 651.3, 472.4 660.1 C 461.7 668.9, 448.7 677, 435.6 682.2 C 422.5 687.5, 407.7 691, 393.9 691.6 C 380.1 692.2, 365.5 690.3, 353 686.1 C 340.6 681.9, 328.4 674.8, 319.2 666.4 C 310 657.9, 302.3 646.7, 297.7 635.2 C 293.1 623.8, 291 610.3, 291.7 597.6 C 292.4 585, 296.2 571.3, 301.9 559.2 C 307.6 547.2, 316.4 535.2, 326 525.4 C 335.5 515.5, 353.8 504.2, 359.4 500 C 364.9 495.8, 353.2 502.5, 359.4 500 Z" fill="none" stroke="#0B0908" stroke-width="3.2" stroke-linecap="round" stroke-linejoin="round" opacity="0.8"/><path d="M 479.5 467.3 C 481.2 468.8, 487.4 474.4, 489.9 475.9 C 492.4 477.4, 493.2 477.8, 494.6 476.4 C 495.9 475, 496.3 471.8, 498.1 467.4 C 500 462.9, 501.9 456.4, 505.8 449.6 C 509.7 442.7, 514.6 434.1, 521.5 426.1 C 528.5 418.2, 537.2 409.2, 547.5 401.9 C 557.7 394.6, 570.2 387.2, 583.2 382.2 C 596.1 377.2, 611.1 373.2, 625.4 371.8 C 639.8 370.5, 655.4 371.1, 669.1 374 C 682.9 376.9, 696.9 382.4, 708.1 389.5 C 719.3 396.6, 729.5 406.2, 736.4 416.5 C 743.3 426.8, 748 439.3, 749.5 451.2 C 751 463.1, 749.5 476.4, 745.4 488.2 C 741.3 499.9, 733.9 511.9, 724.9 521.7 C 715.9 531.6, 703.9 540.6, 691.4 547.2 C 679 553.8, 664.3 558.7, 650.3 561.6 C 636.4 564.5, 621.3 565.1, 607.9 564.4 C 594.4 563.8, 581 560.9, 569.7 557.8 C 558.4 554.6, 548.3 549.7, 540.1 545.5 C 531.8 541.3, 525.5 536.2, 520.5 532.7 C 515.5 529.1, 512.6 525.6, 510.1 524.1 C 507.6 522.6, 506.8 522.2, 505.4 523.6 C 504.1 525, 503.7 528.2, 501.9 532.6 C 500 537.1, 498.1 543.6, 494.2 550.4 C 490.3 557.3, 485.4 565.9, 478.5 573.9 C 471.5 581.8, 462.8 590.8, 452.5 598.1 C 442.3 605.4, 429.8 612.8, 416.8 617.8 C 403.9 622.8, 388.9 626.8, 374.6 628.2 C 360.2 629.5, 344.6 628.9, 330.9 626 C 317.1 623.1, 303.1 617.6, 291.9 610.5 C 280.7 603.4, 270.5 593.8, 263.6 583.5 C 256.7 573.2, 252 560.7, 250.5 548.8 C 249 536.9, 250.5 523.6, 254.6 511.8 C 258.7 500.1, 266.1 488.1, 275.1 478.3 C 284.1 468.4, 296.1 459.4, 308.6 452.8 C 321 446.2, 335.7 441.3, 349.7 438.4 C 363.6 435.5, 378.7 434.9, 392.1 435.6 C 405.6 436.2, 419 439.1, 430.3 442.2 C 441.6 445.4, 451.7 450.3, 459.9 454.5 C 468.2 458.7, 476.2 465.2, 479.5 467.3 C 482.8 469.5, 477.8 465.9, 479.5 467.3 Z" fill="none" stroke="#0B0908" stroke-width="6" stroke-linecap="round" stroke-linejoin="round" opacity="0.7"/><path d="M 520.5 467.3 C 523.8 465.2, 531.8 458.7, 540.1 454.5 C 548.3 450.3, 558.4 445.4, 569.7 442.2 C 581 439.1, 594.4 436.2, 607.9 435.6 C 621.3 434.9, 636.4 435.5, 650.3 438.4 C 664.3 441.3, 679 446.2, 691.4 452.8 C 703.9 459.4, 715.9 468.4, 724.9 478.3 C 733.9 488.1, 741.3 500.1, 745.4 511.8 C 749.5 523.6, 751 536.9, 749.5 548.8 C 748 560.7, 743.3 573.2, 736.4 583.5 C 729.5 593.8, 719.3 603.4, 708.1 610.5 C 696.9 617.6, 682.9 623.1, 669.1 626 C 655.4 628.9, 639.8 629.5, 625.4 628.2 C 611.1 626.8, 596.1 622.8, 583.2 617.8 C 570.2 612.8, 557.7 605.4, 547.5 598.1 C 537.2 590.8, 528.5 581.8, 521.5 573.9 C 514.6 565.9, 509.7 557.3, 505.8 550.4 C 501.9 543.6, 500 537.1, 498.1 532.6 C 496.3 528.2, 495.9 525, 494.6 523.6 C 493.2 522.2, 492.4 522.6, 489.9 524.1 C 487.4 525.6, 484.5 529.1, 479.5 532.7 C 474.5 536.2, 468.2 541.3, 459.9 545.5 C 451.7 549.7, 441.6 554.6, 430.3 557.8 C 419 560.9, 405.6 563.8, 392.1 564.4 C 378.7 565.1, 363.6 564.5, 349.7 561.6 C 335.7 558.7, 321 553.8, 308.6 547.2 C 296.1 540.6, 284.1 531.6, 275.1 521.7 C 266.1 511.9, 258.7 499.9, 254.6 488.2 C 250.5 476.4, 249 463.1, 250.5 451.2 C 252 439.3, 256.7 426.8, 263.6 416.5 C 270.5 406.2, 280.7 396.6, 291.9 389.5 C 303.1 382.4, 317.1 376.9, 330.9 374 C 344.6 371.1, 360.2 370.5, 374.6 371.8 C 388.9 373.2, 403.9 377.2, 416.8 382.2 C 429.8 387.2, 442.3 394.6, 452.5 401.9 C 462.8 409.2, 471.5 418.2, 478.5 426.1 C 485.4 434.1, 490.3 442.7, 494.2 449.6 C 498.1 456.4, 500 462.9, 501.9 467.4 C 503.7 471.8, 504.1 475, 505.4 476.4 C 506.8 477.8, 507.6 477.4, 510.1 475.9 C 512.6 474.4, 518.8 468.8, 520.5 467.3 C 522.2 465.9, 517.2 469.5, 520.5 467.3 Z" fill="none" stroke="#0B0908" stroke-width="3.2" stroke-linecap="round" stroke-linejoin="round" opacity="0.7"/><circle cx="500" cy="500" r="25.6" fill="#0B0908" stroke="none"/></g>
</defs>
<rect width="1280" height="854" fill="url(#lit)"/>
<rect width="1280" height="854" filter="url(#mottle)" opacity="0.38" style="mix-blend-mode:overlay"/>
<g transform="translate(201.7 -51.3) scale(0.9035) rotate(-0.5 485.1 529.4)">
<use href="#motif" filter="url(#bleed)" opacity="0.5"/>
<use href="#motif" opacity="1"/>
</g>
<rect width="1280" height="854" fill="url(#vig)"/>
<rect width="1280" height="854" filter="url(#grain)" opacity="0.26" style="mix-blend-mode:overlay"/>
</svg>